<svg width="98" height="14" viewBox="0 0 98 14" fill="none" xmlns="http://www.w3.org/2000/svg">
<g clip-path="url(#clip0)">
<path d="M5.51831 10.3014C5.51831 11.8637 5.39169 12.4867 4.93217 13.6814V13.7182H6.67629V13.6814C6.05135 12.4867 5.9043 11.8433 5.88592 10.3014V9.65806H5.52239L5.51831 10.3014ZM11.5799 3.69045C11.5799 2.13013 11.7085 1.50722 12.168 0.312472V0.275712H10.4219V0.312472C11.0468 1.50722 11.1939 2.15055 11.2123 3.69045L11.249 9.64172L6.63953 0.275712H4.95055V0.312472C5.30267 1.01484 5.49647 1.78588 5.51831 2.57126V5.12823H5.84916L5.83078 2.47323L11.3593 13.7672L11.5799 13.712V3.69045ZM18.685 2.97564L18.7953 2.9205L18.4481 0.265503H12.7174V0.302263C13.0551 1.27199 13.2169 2.29419 13.1953 3.32079V10.6465C13.2174 11.6772 13.0556 12.7035 12.7174 13.6773V13.7141H18.9526L19.4305 10.3708L19.3018 10.3177C18.6769 11.5431 17.668 13.2913 16.7857 13.3465L14.8578 13.42V6.92342H15.74C16.3262 6.92342 16.9654 7.93436 17.282 8.44697H17.4106V5.05062H17.282C16.9511 5.62042 16.3262 6.59256 15.74 6.59256H14.868V0.569805L16.6489 0.643331C17.2003 0.698473 18.0785 2.20365 18.6912 2.97564H18.685ZM29.5154 3.71087C29.8279 2.16689 30.0852 1.12122 30.5978 0.312472V0.275712H28.7802V0.312472C29.2029 0.974179 29.4602 2.20365 29.0375 4.31539L27.8632 10.1727L26.3028 3.63734C25.9536 2.1485 25.8617 0.99256 26.3212 0.312472V0.275712H23.5335V0.312472C23.9419 1.02932 24.2319 1.94632 24.5791 3.43516L24.6527 3.74763L23.1842 10.1564L21.8261 3.63734C21.5136 2.16688 21.4769 0.99256 21.9364 0.312472V0.275712H19.1078V0.312472C19.5673 1.02932 19.843 1.94632 20.129 3.43516L22.2407 13.8284H22.6798L24.8283 4.51758L27.0136 13.8284H27.4547L29.5154 3.71087ZM38.7058 2.84697L38.816 2.79183L38.669 0.312472C38.0874 0.119646 37.4803 0.014338 36.8677 0C35.2338 0 33.8042 1.08446 33.8042 3.17782C33.8042 4.94033 34.8683 6.2617 35.9527 7.36455C37.0903 8.52049 38.2299 9.61109 38.2299 11.4226C38.2299 12.7072 37.6417 13.6691 36.6675 13.6691C35.7322 13.6691 34.9418 12.7685 33.8226 10.7303L33.7123 10.7854L33.8594 13.4118C34.6087 13.7813 35.4299 13.982 36.2652 14C38.1033 14 39.5145 12.7746 39.5145 10.4362C39.5145 8.36119 38.4137 7.09496 37.268 5.99212C36.1304 4.83618 34.9724 3.82728 34.9724 2.08111C34.9724 0.888403 35.5238 0.336985 36.2223 0.336985C36.9923 0.336985 37.6724 1.01707 38.7017 2.8531L38.7058 2.84697ZM46.4869 3.38614L46.5972 3.34938L46.248 0.285928H39.7473L39.3981 3.34938L39.49 3.38614C40.1333 2.26492 40.9196 0.686219 41.5466 0.649458L42.1593 0.612691V10.5097C42.1593 11.9802 42.049 12.6031 41.6814 13.6875V13.7243H44.3078V13.6875C43.9402 12.6031 43.8299 11.9802 43.8299 10.5097V0.606565L44.4426 0.643331C45.0553 0.680092 45.8559 2.25879 46.4849 3.38002L46.4869 3.38614ZM49.5157 8.48578H47.1854L48.3413 3.54748L49.5157 8.48578ZM51.7009 10.5608L49.2502 0.16747H48.7702L46.3399 10.4117C45.9907 11.8637 45.6966 12.8359 45.1635 13.6794V13.7161H47.0384V13.6794C46.7626 13.0176 46.4134 11.7147 46.9097 9.6213L47.0935 8.80438H49.5708L49.9384 10.3463C50.2877 11.8352 50.2141 13.0279 49.9017 13.6712V13.7079H52.7609V13.6712C52.3381 12.9543 52.044 12.0925 51.6785 10.5485L51.7009 10.5608ZM58.3241 3.3698L58.4344 3.33304L58.0872 0.269586H51.6111L51.2618 3.33304L51.3537 3.3698C51.995 2.24858 52.7834 0.669877 53.4103 0.633116L54.023 0.596356V10.4934C54.023 11.9638 53.9148 12.5867 53.5472 13.6712V13.7079H56.1634V13.6712C55.7978 12.5867 55.6875 11.9638 55.6875 10.4934V0.606565L56.3002 0.643331C56.9129 0.680092 57.7155 2.25879 58.3425 3.38002L58.3241 3.3698ZM65.2863 13.7182L65.7642 10.3749L65.6356 10.3218C65.0106 11.5472 64.0017 13.2954 63.1195 13.3505L61.1915 13.4241V6.92342H62.0738C62.6599 6.92342 63.2992 7.93436 63.6157 8.44697H63.7444V5.05062H63.6157C63.2849 5.62042 62.6599 6.59256 62.0738 6.59256H61.1915V0.569805L62.9724 0.643331C63.5238 0.698473 64.402 2.20365 65.0147 2.97564L65.1087 2.91233L64.7594 0.257332H59.041V0.294092C59.3754 1.26716 59.5331 2.2922 59.5066 3.32079V10.6465C59.5287 11.6772 59.3669 12.7035 59.0287 13.6773V13.7141L65.2863 13.7182ZM69.9142 5.98599C68.7746 4.83005 67.6187 3.82115 67.6187 2.07498C67.6187 0.882276 68.1701 0.330852 68.8665 0.330852C69.6385 0.330852 70.3186 1.01094 71.3459 2.84697L71.4561 2.79183L71.3091 0.312472C70.7282 0.119491 70.1218 0.0141768 69.5098 0C67.876 0 66.4464 1.08446 66.4464 3.17782C66.4464 4.94033 67.5104 6.2617 68.5949 7.36455C69.7324 8.52049 70.87 9.61109 70.87 11.4226C70.87 12.7072 70.2839 13.6691 69.3097 13.6691C68.3743 13.6691 67.5839 12.7685 66.4648 10.7303L66.3545 10.7854L66.5015 13.4118C67.2502 13.781 68.0707 13.9817 68.9053 14C70.7434 14 72.1567 12.7746 72.1567 10.4362C72.1567 8.36119 71.0538 7.09496 69.9101 5.99212L69.9142 5.98599ZM80.9386 3.54135C80.9386 1.94223 81.0672 1.31933 81.5084 0.32677V0.29001H79.5233L77.193 9.7663L74.8586 0.29001H72.8572V0.32677C73.2983 1.31933 73.4086 1.90547 73.427 3.50459V10.3157C73.427 11.878 73.2983 12.5009 72.8388 13.6957V13.7325H74.6401V13.6957C73.9968 12.5009 73.7946 11.8576 73.7946 10.3157L73.7578 2.69584L76.3842 13.3281H76.6599L79.2659 2.75098V10.5117C79.2659 11.9822 79.1556 12.6051 78.8084 13.6896V13.7263H81.4165V13.6896C81.0488 12.6051 80.9386 11.9822 80.9386 10.5117V3.54135ZM86.2486 8.49803H83.9285L85.0865 3.55974L86.2486 8.49803ZM86.657 13.7325H89.5162V13.6957C89.0935 12.9788 88.7994 12.117 88.4318 10.573L85.981 0.179724H85.5215L83.0809 10.4117C82.7317 11.8637 82.4376 12.8359 81.9046 13.6794V13.7161H83.7774V13.6794C83.5016 13.0176 83.1647 11.7147 83.6487 9.6213L83.8325 8.80438H86.3119L86.6795 10.3463C87.0287 11.8352 86.9552 13.0279 86.6427 13.6712L86.657 13.7325ZM97.1422 0.32677V0.29001H95.3981V0.32677C96.0108 1.52152 96.168 2.16485 96.1864 3.70474L96.213 9.65193L91.6035 0.285928H89.9145V0.322688C90.2663 1.02526 90.4608 1.79608 90.4843 2.58148V10.3116C90.4843 11.874 90.3556 12.4969 89.8961 13.6916V13.7284H91.6402V13.6916C91.0275 12.4969 90.8703 11.8535 90.8519 10.3116L90.7968 2.48957L96.3232 13.7835L96.5438 13.7284V3.70065C96.5438 2.14033 96.6725 1.51744 97.132 0.322688" fill="#252524"/>
<path d="M5.20584 9.31086H7.06025L7.20321 8.28971L7.16645 8.27542C6.94588 8.70022 6.66608 9.17812 6.42101 9.19446L5.94106 9.22101V7.36047H6.15755C6.33115 7.36047 6.51495 7.6709 6.61502 7.83428H6.65587V6.81313H6.61502C6.50882 6.98264 6.32502 7.26652 6.15755 7.26652H5.94106V5.54486L6.36791 5.57141C6.57214 5.59796 6.77637 5.96558 7.00306 6.26579L7.03982 6.2515L6.93975 5.46521H5.20584V5.47542C5.30609 5.78869 5.35236 6.11673 5.34267 6.44551V8.32239C5.35215 8.65384 5.30589 8.98453 5.20584 9.30066V9.31086ZM2.41196 9.31086H3.28403V9.30066C3.18299 8.97984 3.13673 8.64429 3.14719 8.3081V7.37885H4.09891V8.30197C4.11215 8.64031 4.06584 8.97835 3.96207 9.30066V9.31086H4.83822V9.30066C4.73819 8.97961 4.69195 8.64423 4.70139 8.3081V6.47002C4.69195 6.13389 4.73819 5.79851 4.83822 5.47746V5.46725H3.96207V5.47746C4.06647 5.79963 4.1128 6.13778 4.09891 6.47615V7.29307H3.14719V6.47615C3.13673 6.13996 3.18299 5.80441 3.28403 5.48359V5.47338H2.40992V5.48359C2.51115 5.80647 2.5574 6.14407 2.54675 6.48228V8.3081C2.55694 8.64628 2.5107 8.9838 2.40992 9.30678L2.41196 9.31086ZM1.51335 9.30066C1.41332 8.97961 1.36708 8.64423 1.37651 8.3081V5.56732H1.49088C1.67673 5.56732 1.88505 5.97578 2.11787 6.40671L2.15463 6.39037L2.04843 5.455H0.100074L0 6.39037L0.0326776 6.40671C0.269585 5.9717 0.473816 5.57754 0.661708 5.56732H0.771991V8.30401C0.783631 8.63982 0.739462 8.97523 0.641283 9.29657V9.30678H1.51335V9.30066Z" fill="#252524"/>
</g>
<defs>
<clipPath id="clip0">
<rect width="97.1746" height="14" fill="white"/>
</clipPath>
</defs>
</svg>